<svg width="512" height="512" viewBox="0 0 512 512" fill="none" xmlns="http://www.w3.org/2000/svg">
  <rect width="512" height="512" rx="100" fill="#1B4332"/>
  <path d="M360 256C360 313.438 313.438 360 256 360C198.562 360 152 313.438 152 256C152 198.562 198.562 152 256 152C284.719 152 310.719 163.625 329.562 182.438C322.281 180.875 314.719 180 307 180C265.031 180 231 214.031 231 256C231 297.969 265.031 332 307 332C314.719 332 322.281 331.125 329.562 329.562C310.719 348.375 284.719 360 256 360C198.562 360 152 313.438 152 256C152 198.562 198.562 152 256 152C284.719 152 310.719 163.625 329.562 182.438" fill="#D4AF37"/>
  <path d="M256 152C284.719 152 310.719 163.625 329.562 182.438C336.844 175.156 345.156 166.844 352.438 159.562C326.125 133.25 292.125 117 254 117C177.219 117 115 179.219 115 256C115 332.781 177.219 395 254 395C292.125 395 326.125 378.75 352.438 352.438C345.156 345.156 336.844 336.844 329.562 329.562C310.719 348.375 284.719 360 256 360C198.562 360 152 313.438 152 256C152 198.562 198.562 152 256 152Z" fill="#D4AF37" opacity="0.3"/>
</svg>
